<svg xmlns="http://www.w3.org/2000/svg" xmlns:xlink="http://www.w3.org/1999/xlink" width="2000" zoomAndPan="magnify" viewBox="0 0 1500 1499.999933" height="2000" preserveAspectRatio="xMidYMid meet" version="1.0"><defs><clipPath id="0654b231b9"><path d="M 697 16 L 1268 16 L 1268 449 L 697 449 Z M 697 16 " clip-rule="nonzero"/></clipPath><clipPath id="dad82e661a"><path d="M 755.121094 -94.339844 L 1325.371094 200.519531 L 1132.929688 572.695312 L 562.683594 277.835938 Z M 755.121094 -94.339844 " clip-rule="nonzero"/></clipPath><clipPath id="1ba4ad4a43"><path d="M 754.929688 -94.4375 L 1325.179688 200.421875 L 1132.738281 572.597656 L 562.488281 277.738281 Z M 754.929688 -94.4375 " clip-rule="nonzero"/></clipPath><clipPath id="ed0fb4167b"><path d="M 754.929688 -94.4375 L 1325.179688 200.421875 L 1132.738281 572.597656 L 562.488281 277.738281 Z M 754.929688 -94.4375 " clip-rule="nonzero"/></clipPath><clipPath id="36d43380f3"><path d="M 1 372.292969 L 1127 372.292969 L 1127 1494 L 1 1494 Z M 1 372.292969 " clip-rule="nonzero"/></clipPath><clipPath id="fde190a451"><rect x="0" width="1327" y="0" height="1495"/></clipPath></defs><g transform="matrix(1, 0, 0, 1, 105, 0.000000000000112861)"><g clip-path="url(#fde190a451)"><g clip-path="url(#0654b231b9)"><g clip-path="url(#dad82e661a)"><g clip-path="url(#1ba4ad4a43)"><g clip-path="url(#ed0fb4167b)"><path fill="#000000" d="M 965.207031 197.761719 L 1071.582031 209.535156 L 1000.71875 129.089844 L 894.113281 117.761719 Z M 1008.914062 365.492188 L 1029.941406 324.824219 L 805.316406 72.105469 L 1018.480469 94.734375 L 1160.171875 255.589844 L 993.65625 237.15625 L 1037.050781 285.984375 L 1267.753906 311.519531 L 1040.046875 53.023438 L 697.488281 16.652344 L 965.011719 317.640625 L 906.566406 311.171875 L 767.332031 154.519531 L 708.417969 268.460938 L 847.652344 425.113281 L 1055.972656 448.171875 L 1114.886719 334.230469 L 1061.164062 328.28125 L 1037.339844 374.355469 L 1029.117188 364.25 Z M 1008.914062 365.492188 " fill-opacity="1" fill-rule="evenodd"/></g></g></g></g><g clip-path="url(#36d43380f3)"><path fill="#000000" d="M 559.011719 372.292969 C 667.714844 372.292969 764.488281 398.363281 849.332031 450.949219 C 934.175781 503.09375 1000.460938 569.816406 1048.625 651.125 C 1096.792969 732.433594 1122.421875 822.578125 1125.957031 921.5625 C 1129.492188 1020.546875 1104.304688 1117.761719 1050.394531 1212.769531 C 1004.878906 1291.425781 945.664062 1353.734375 872.753906 1400.574219 C 799.839844 1447.414062 722.070312 1476.578125 639.433594 1488.511719 C 556.800781 1500 473.726562 1493.371094 390.648438 1467.742188 C 307.574219 1442.113281 232.453125 1396.597656 166.609375 1330.3125 C 92.371094 1254.75 42.882812 1167.253906 18.136719 1068.273438 C -6.609375 969.289062 -4.402344 869.863281 24.320312 770.878906 C 36.695312 731.109375 57.019531 697.964844 85.300781 671.894531 C 113.582031 645.824219 145.398438 626.378906 181.191406 614.007812 C 216.984375 601.632812 254.105469 595.890625 292.550781 597.65625 C 330.996094 598.984375 366.789062 606.9375 399.929688 621.519531 C 433.070312 636.101562 460.910156 656.429688 483.445312 683.382812 C 505.984375 710.339844 519.683594 743.039062 523.660156 781.484375 C 502.890625 766.460938 478.144531 758.503906 449.421875 757.621094 C 420.699219 756.738281 392.859375 762.925781 365.902344 776.179688 C 338.949219 789.4375 316.410156 809.324219 297.851562 836.277344 C 279.292969 863.234375 270.011719 896.375 270.011719 936.589844 C 270.011719 1005.523438 284.59375 1062.527344 313.320312 1108.042969 C 342.042969 1153.558594 378.277344 1187.582031 421.582031 1210.117188 C 464.886719 1232.65625 511.726562 1244.144531 562.105469 1244.144531 C 612.480469 1244.144531 659.320312 1232.65625 702.625 1209.234375 C 745.929688 1185.816406 782.164062 1150.90625 810.890625 1104.949219 C 839.613281 1058.992188 854.195312 1001.546875 854.195312 932.609375 C 854.195312 878.699219 844.472656 831.417969 825.472656 790.320312 C 806.027344 749.226562 780.398438 714.757812 748.140625 688.246094 C 715.882812 661.289062 678.320312 642.730469 635.457031 632.566406 C 592.59375 622.402344 547.519531 621.960938 499.355469 631.683594 C 478.585938 606.9375 453.398438 587.492188 423.792969 572.910156 C 394.183594 557.003906 362.367188 547.28125 327.902344 542.863281 C 293.433594 538 258.964844 538.886719 224.5 545.070312 C 190.03125 551.257812 157.773438 563.1875 127.28125 581.308594 C 182.519531 515.023438 246.152344 463.765625 319.503906 427.527344 C 392.417969 390.410156 472.398438 372.292969 559.011719 372.292969 Z M 559.011719 372.292969 " fill-opacity="1" fill-rule="nonzero"/></g></g></g></svg>